<svg width="105" height="105" viewBox="0 0 105 105" fill="none" xmlns="http://www.w3.org/2000/svg">
<path d="M21 39.6206C21.005 44.4391 22.1486 49.1882 24.3375 53.4808C26.5264 57.7734 29.6986 61.488 33.5956 64.3219L33.6 64.3262C36.1097 66.1636 38.8847 67.6079 41.8294 68.6094L42.0525 68.6925C43.7117 69.2319 45.4139 69.6286 47.1406 69.8781C48.6228 70.1117 50.1202 70.236 51.6206 70.25H51.625C53.1562 70.25 54.6438 70.1012 56.1181 69.8825L56.9144 69.76C58.3873 69.5033 59.8179 69.149 61.2063 68.6969L61.39 68.6269C73.5 64.5319 82.25 53.0912 82.25 39.6206C82.25 22.7375 68.5125 9 51.625 9C34.7375 9 21 22.7375 21 39.6206ZM51.625 17.75C63.6825 17.75 73.5 27.5587 73.5 39.6206H64.75C64.7454 36.1415 63.3609 32.8062 60.9004 30.3465C58.4399 27.8868 55.1041 26.5035 51.625 26.5V17.75ZM32.0294 73.7281V96.5L51.625 89.9375L71.2206 96.5L71.225 73.7281C65.2707 77.1807 58.51 78.999 51.6272 78.999C44.7443 78.999 37.9836 77.1807 32.0294 73.7281Z" fill="black"/>
</svg>
