<svg width="32" height="32" viewBox="0 0 32 32" fill="none" xmlns="http://www.w3.org/2000/svg">
<path d="M27.4229 8.53751L16.2724 2.11961C16.0877 2.00418 15.8337 1.95801 15.5567 1.95801C15.2797 1.95801 15.0257 2.02727 14.841 2.11961L3.75976 8.56059C3.3673 8.79145 3.09027 9.3686 3.09027 9.80723V22.6661C3.09027 22.9201 3.13644 23.2202 3.32113 23.4741L27.9769 9.16083C27.8384 8.8838 27.6306 8.67602 27.4229 8.53751Z" fill="#659AD3"/>
<path d="M3.25183 23.451C3.36726 23.6357 3.52886 23.7973 3.69046 23.8896L14.8179 30.3306C15.0026 30.446 15.2565 30.4922 15.5336 30.4922C15.8106 30.4922 16.0645 30.423 16.2492 30.3306L27.3305 23.8896C27.723 23.6588 28 23.0816 28 22.643V9.7841C28 9.57633 27.9769 9.34547 27.8615 9.1377L3.25183 23.451Z" fill="#03599C"/>
<path d="M20.474 19.0183C19.5044 20.7267 17.6575 21.881 15.5567 21.881C12.4401 21.881 9.90064 19.3415 9.90064 16.2249C9.90064 13.1083 12.4401 10.5689 15.5567 10.5689C17.6575 10.5689 19.5044 11.7231 20.474 13.4546L23.4752 11.7231C21.9053 8.97592 18.9503 7.10596 15.5567 7.10596C10.524 7.10596 6.43774 11.1922 6.43774 16.2249C6.43774 21.2577 10.524 25.3439 15.5567 25.3439C18.9272 25.3439 21.8823 23.497 23.4521 20.7728L20.474 19.0183Z" fill="white"/>
</svg>
