<svg width="32" height="32" viewBox="0 0 32 32" fill="none" xmlns="http://www.w3.org/2000/svg">
<path d="M29 10.232C29.009 9.79614 28.8991 9.36609 28.682 8.988C28.4537 8.61699 28.1306 8.31357 27.746 8.109C24.2834 6.197 20.819 4.286 17.353 2.376C16.9352 2.12438 16.4559 1.99342 15.9681 1.99766C15.4804 2.00189 15.0034 2.14116 14.59 2.4C13.212 3.179 6.31504 6.965 4.25904 8.106C3.86803 8.30282 3.54162 8.60759 3.31848 8.98421C3.09535 9.36082 2.98484 9.7935 3.00004 10.231V21.77C2.98994 22.1961 3.09348 22.6172 3.30004 22.99C3.52954 23.3718 3.85956 23.6831 4.25404 23.89C6.31004 25.031 13.208 28.817 14.586 29.596C14.9992 29.8551 15.4761 29.9947 15.9639 29.9993C16.4516 30.0039 16.931 29.8733 17.349 29.622C20.809 27.708 24.271 25.797 27.735 23.889C28.1296 23.6818 28.4599 23.3706 28.69 22.989C28.8966 22.6162 29.0001 22.1951 28.99 21.769V10.232" fill="#659AD2"/>
<path d="M28.549 23.1711C28.6015 23.1134 28.6506 23.0526 28.696 22.9891C28.9026 22.6163 29.0061 22.1952 28.996 21.7691V10.2321C29.0049 9.79627 28.895 9.36621 28.678 8.98812C28.642 8.92912 28.589 8.88312 28.548 8.82812L16 16.0001L28.549 23.1711Z" fill="#00599C"/>
<path d="M28.549 23.171L16 16L3.45105 23.171C3.66234 23.4695 3.93905 23.7158 4.26005 23.891C6.31605 25.032 13.214 28.818 14.592 29.597C15.0052 29.8561 15.4822 29.9958 15.9699 30.0003C16.4576 30.0049 16.937 29.8743 17.355 29.623C20.815 27.709 24.277 25.798 27.741 23.89C28.0616 23.7149 28.3379 23.469 28.549 23.171Z" fill="#004482"/>
<path d="M19.6 18.0201C19.1545 18.8123 18.4597 19.435 17.6236 19.7913C16.7875 20.1476 15.8571 20.2176 14.9771 19.9902C14.0971 19.7629 13.317 19.251 12.7582 18.5343C12.1993 17.8176 11.893 16.9363 11.887 16.0275C11.881 15.1186 12.1756 14.2333 12.725 13.5093C13.2743 12.7853 14.0476 12.2632 14.9245 12.0242C15.8014 11.7853 16.7326 11.8429 17.5733 12.1881C18.4141 12.5334 19.1171 13.1469 19.573 13.9331L23.188 11.8601C22.2704 10.2854 20.8605 9.05606 19.1755 8.36147C17.4905 7.66687 15.6239 7.54556 13.8632 8.01621C12.1024 8.48685 10.5453 9.52336 9.4316 10.966C8.31791 12.4087 7.70946 14.1776 7.69996 16.0001C7.6974 17.4454 8.07688 18.8657 8.79996 20.1171C9.53146 21.3814 10.5829 22.4308 11.8487 23.1598C13.1144 23.8887 14.5497 24.2716 16.0104 24.2699C17.471 24.2682 18.9055 23.8819 20.1695 23.1499C21.4335 22.418 22.4825 21.3661 23.211 20.1001L19.6 18.0201Z" fill="white"/>
<path d="M24.076 15.5382H23.15V14.6172H22.225V15.5382H21.299V16.4612H22.225V17.3812H23.15V16.4612H24.076V15.5382ZM27.549 15.5382H26.6229V14.6172H25.697V15.5382H24.771V16.4612H25.697V17.3812H26.6229V16.4612H27.549V15.5382Z" fill="white"/>
</svg>
