<svg width="32" height="32" viewBox="0 0 32 32" fill="none" xmlns="http://www.w3.org/2000/svg">
<path d="M14.135 4H18.1V22.169C16.4077 22.5178 14.6848 22.697 12.957 22.704C8.11497 22.699 5.59497 20.536 5.59497 16.382C5.59497 12.382 8.26797 9.782 12.411 9.782C12.992 9.7713 13.5718 9.83857 14.135 9.982V4ZM14.135 13.142C13.7039 13 13.2518 12.9323 12.798 12.942C10.798 12.942 9.63497 14.165 9.63497 16.308C9.63497 18.395 10.742 19.547 12.773 19.547C13.2288 19.5482 13.6842 19.5148 14.135 19.447V13.147V13.142Z" fill="#44B78B"/>
<path d="M24.4001 10.059V19.159C24.4001 22.292 24.1651 23.798 23.4771 25.097C22.7746 26.4176 21.6266 27.4463 20.2371 28L16.5591 26.267C17.8957 25.8101 19.015 24.8733 19.7001 23.638C20.2661 22.517 20.4451 21.218 20.4451 17.801V10.059H24.4001ZM20.4411 4.02002H24.4051V8.04802H20.4411V4.02002Z" fill="#44B78B"/>
</svg>
