<svg width="30" height="30" viewBox="0 0 30 30" fill="none" xmlns="http://www.w3.org/2000/svg">
<rect width="30" height="30" fill="black"/>
<path d="M6.25 8.25V7C5.56 7 5 7.56 5 8.25H6.25ZM24.25 8.25H25.5C25.5 7.56 24.94 7 24.25 7V8.25ZM6.25 9.5H24.25V7H6.25V9.5ZM23 8.25V20.25H25.5V8.25H23ZM22.25 21H8.25V23.5H22.25V21ZM7.5 20.25V8.25H5V20.25H7.5ZM8.25 21C8.05109 21 7.86032 20.921 7.71967 20.7803C7.57902 20.6397 7.5 20.4489 7.5 20.25H5C5 21.112 5.34241 21.9386 5.9519 22.5481C6.5614 23.1576 7.38805 23.5 8.25 23.5V21ZM23 20.25C23 20.4489 22.921 20.6397 22.7803 20.7803C22.6397 20.921 22.4489 21 22.25 21V23.5C23.112 23.5 23.9386 23.1576 24.5481 22.5481C25.1576 21.9386 25.5 21.112 25.5 20.25H23Z" fill="white"/>
<path d="M6.25 8.25L15.25 17.25L24.25 8.25" fill="white"/>
<path d="M6.25 8.25L15.25 17.25L24.25 8.25" stroke="white" stroke-width="2.5" stroke-linecap="round" stroke-linejoin="round"/>
</svg>
