<svg width="280" height="420" viewBox="0 0 280 420" fill="none" xmlns="http://www.w3.org/2000/svg">
<path d="M79 383C112.672 383 140 355.672 140 322V261H79C45.328 261 18 288.328 18 322C18 355.672 45.328 383 79 383Z" fill="#0ACF83"/>
<path d="M18 200.5C18 167.104 45.328 140 79 140H140V261H79C45.328 261 18 233.896 18 200.5Z" fill="#A259FF"/>
<path d="M18 79C18 45.328 45.328 18 79 18H140V140H79C45.328 140 18 112.672 18 79Z" fill="#F24E1E"/>
<path d="M140 18H201C234.672 18 262 45.328 262 79C262 112.672 234.672 140 201 140H140V18Z" fill="#FF7262"/>
<path d="M262 200.5C262 233.896 234.672 261 201 261C167.328 261 140 233.896 140 200.5C140 167.104 167.328 140 201 140C234.672 140 262 167.104 262 200.5Z" fill="#1ABCFE"/>
</svg>
