<svg width="283" height="283" viewBox="0 0 283 283" fill="none" xmlns="http://www.w3.org/2000/svg">
<path d="M209 14H73C39.8629 14 13 40.8629 13 74V210C13 243.137 39.8629 270 73 270H209C242.137 270 269 243.137 269 210V74C269 40.8629 242.137 14 209 14Z" fill="#330000"/>
<path d="M136.733 166.333H97.053L88.946 191.4C88.733 192.36 87.88 193 86.92 192.893H66.866C65.693 192.893 65.373 192.253 65.693 190.973L100.04 92.0931C100.36 91.0271 100.68 89.8531 101.106 88.5731C101.533 86.3331 101.746 83.9871 101.746 81.6401C101.64 81.1071 102.066 80.5731 102.6 80.4671H130.226C131.08 80.4671 131.506 80.7871 131.613 81.3201L170.546 191.187C170.866 192.36 170.546 192.893 169.48 192.893H147.186C146.44 193 145.693 192.467 145.48 191.72L136.733 166.333ZM103.24 144.68H130.333C129.693 142.44 128.84 139.773 127.88 137C126.92 134.12 125.96 131.027 125 127.827C123.933 124.52 122.973 121.32 121.906 118.013C120.84 114.707 119.88 111.613 119.026 108.52C118.173 105.534 117.426 102.76 116.68 100.2H116.466C115.506 104.787 114.333 109.374 112.84 113.96C111.24 119.08 109.64 124.413 107.933 129.747C106.556 134.782 104.99 139.763 103.24 144.68ZM194.333 99.1331C190.813 99.2401 187.4 97.8531 184.84 95.4001C182.387 92.7331 181.107 89.2131 181.213 85.5871C181.107 81.9601 182.493 78.5471 185.053 76.0931C187.613 73.6391 191.027 72.3601 194.547 72.3601C198.707 72.3601 201.907 73.6401 204.253 76.0931C206.617 78.679 207.88 82.0849 207.773 85.5871C207.88 89.2131 206.6 92.7331 204.04 95.4001C201.587 97.9601 197.96 99.3471 194.333 99.1331ZM182.387 191.72V109.587C182.387 108.52 182.813 108.093 183.773 108.093H204.893C205.853 108.093 206.28 108.627 206.28 109.587V191.72C206.28 192.893 205.853 193.427 204.893 193.427H183.987C182.92 193.427 182.387 192.787 182.387 191.72Z" fill="#FF9A00"/>
</svg>
