<svg width="133" height="133" viewBox="0 0 133 133" fill="none" xmlns="http://www.w3.org/2000/svg">
<g opacity="0.783">
<path d="M55.8161 11.1072L11.2849 56.6324C-5.51375 73.431 22.2189 72.0394 32.2583 78.401C36.9301 81.383 17.3483 85.2596 21.3243 89.335C25.2009 93.311 44.7827 96.9888 48.6593 100.865C52.5359 104.841 40.8067 109.016 44.6833 113.092C48.4605 117.068 57.5059 113.29 59.0963 122.336C60.2891 128.996 75.6961 125.715 82.6541 119.95C86.9283 116.272 75.1991 116.272 79.0757 112.296C88.8169 102.456 97.4647 107.823 100.944 98.778C102.932 93.9074 86.2325 90.4284 90.7055 87.347C101.341 79.892 140.107 76.1148 122.215 58.2228L76.1931 11.1072C70.4279 5.73964 61.0843 5.73964 55.8161 11.1072ZM106.808 98.778C106.808 101.064 124.402 102.356 123.408 98.281C122.016 91.323 108.697 91.9194 106.808 98.778ZM31.8607 110.805C35.8367 114.284 41.9001 110.01 43.7887 105.239C39.9121 100.07 25.5985 105.438 31.8607 110.805ZM104.621 103.549C99.6515 108.122 105.516 112.793 110.387 109.712C111.679 108.817 110.287 104.643 104.621 103.549Z" fill="black"/>
<path opacity="0.576" d="M55.8161 12.1011L11.2849 57.6263C-5.51375 74.5243 22.2189 73.1327 32.2583 79.4943C36.9301 82.4763 17.3483 86.3529 21.3243 90.4283C25.2009 94.4043 44.7826 98.0821 48.6592 101.959C52.5359 105.935 40.8066 110.11 44.6833 114.185C48.4604 118.161 57.5058 114.384 59.0962 123.429C60.289 130.089 75.6961 126.809 82.6541 121.044C86.9283 117.366 75.1991 117.366 79.0757 113.39C88.8168 103.549 97.4647 108.917 100.944 99.8713C102.932 95.0007 86.2325 91.5217 90.7055 88.4403C101.242 80.9853 140.107 77.2081 122.215 59.3161L76.1931 12.1011C70.4279 6.73354 61.0843 6.73354 55.8161 12.1011ZM106.808 99.8713C106.808 102.158 124.402 103.45 123.408 99.3743C122.016 92.4163 108.697 92.9133 106.808 99.8713ZM31.8607 111.799C35.8367 115.278 41.9001 111.004 43.7887 106.233C39.9121 101.164 25.5985 106.531 31.8607 111.799ZM104.621 104.643C99.6515 109.215 105.516 113.887 110.387 110.805C111.679 109.911 110.287 105.637 104.621 104.643Z" fill="black"/>
</g>
<path d="M55.8161 10.0257L11.2849 55.5509C-5.51375 72.3495 22.2189 70.9579 32.2583 77.3195C36.9301 80.3015 17.3483 84.1781 21.3243 88.2535C25.2009 92.2295 44.7826 95.9073 48.6592 99.7839C52.5359 103.76 40.8066 107.935 44.6833 112.01C48.4604 115.986 57.5058 112.209 59.0962 121.254C60.289 127.914 75.6961 124.634 82.6541 118.869C86.9283 115.191 75.1991 115.191 79.0757 111.215C88.8168 101.374 97.4647 106.742 100.944 97.6965C102.932 92.8259 86.2325 89.3469 90.7055 86.2655C101.242 78.8105 140.107 75.0333 122.215 57.1413L76.1931 10.0257C70.4279 4.6581 61.0843 4.6581 55.8161 10.0257ZM106.808 97.6965C106.808 99.9827 124.402 101.275 123.408 97.1995C122.016 90.3409 108.697 90.8379 106.808 97.6965ZM31.8607 109.724C35.8367 113.203 41.9001 108.929 43.7887 104.158C39.9121 98.9887 25.5985 104.456 31.8607 109.724ZM104.621 102.468C99.6515 107.04 105.516 111.712 110.387 108.631C111.679 107.736 110.287 103.561 104.621 102.468Z" fill="black"/>
<mask id="mask0_54_3" style="mask-type:luminance" maskUnits="userSpaceOnUse" x="7" y="7" width="119" height="117">
<path d="M56.0391 11.0381L12.4012 55.7596C-4.14767 72.3085 23.0398 70.9294 32.8904 77.1353C37.4216 80.0904 18.3116 83.9321 22.1533 87.8724C25.995 91.8126 45.105 95.3588 48.9467 99.2005C52.7885 103.141 41.2633 107.278 45.0065 111.12C48.7497 115.06 57.6152 111.317 59.1913 120.182C60.3734 126.782 75.5432 123.433 82.2416 117.818L78.7939 110.332C88.3489 100.678 96.8204 105.997 100.268 97.1319C102.14 92.4036 85.8863 88.9559 90.2205 85.9022C100.564 78.6128 138.685 74.8696 121.151 57.3357L75.9372 11.0381C70.4209 5.81736 61.1614 5.81736 56.0391 11.0381ZM45.4991 79.5979C46.4841 79.5979 78.1043 83.8336 65.8897 87.0843C61.2599 88.3649 39.8843 79.5979 45.4991 79.5979ZM106.08 97.1319C106.08 99.3975 123.318 100.58 122.432 96.6393C121.053 89.8425 107.951 90.4335 106.08 97.1319ZM32.4963 108.953C36.4366 112.302 42.3469 108.164 44.2185 103.436C40.4753 98.4124 26.389 103.732 32.4963 108.953ZM104.011 101.86C99.1845 106.293 104.898 110.923 109.626 107.869C110.808 106.982 109.429 102.845 104.011 101.86Z" fill="white"/>
</mask>
<g mask="url(#mask0_54_3)">
<path d="M56.0391 11.0381L12.4012 55.7596C-4.14767 72.3085 23.0398 70.9294 32.8904 77.1353C37.4216 80.0904 18.3116 83.9321 22.1533 87.8724C25.995 91.8126 45.105 95.3588 48.9467 99.2005C52.7885 103.141 41.2633 107.278 45.0065 111.12C48.7497 115.06 57.6152 111.317 59.1913 120.182C60.3734 126.782 75.5432 123.433 82.2416 117.818L78.7939 110.332C88.3489 100.678 96.8204 105.997 100.268 97.1319C102.14 92.4036 85.8863 88.9559 90.2205 85.9022C100.564 78.6128 138.685 74.8696 121.151 57.3357L75.9372 11.0381C70.4209 5.81736 61.1614 5.81736 56.0391 11.0381ZM45.4991 79.5979C46.4841 79.5979 78.1043 83.8336 65.8897 87.0843C61.2599 88.3649 39.8843 79.5979 45.4991 79.5979ZM106.08 97.1319C106.08 99.3975 123.318 100.58 122.432 96.6393C121.053 89.8425 107.951 90.4335 106.08 97.1319ZM32.4963 108.953C36.4366 112.302 42.3469 108.164 44.2185 103.436C40.4753 98.4124 26.389 103.732 32.4963 108.953ZM104.011 101.86C99.1845 106.293 104.898 110.923 109.626 107.869C110.808 106.982 109.429 102.845 104.011 101.86Z" fill="url(#paint0_linear_54_3)"/>
</g>
<path opacity="0.505" d="M15.2609 58.036C3.13407 69.964 24.4057 66.6838 40.7073 73.0454L74.5033 13.7036C69.4339 8.4354 62.8735 8.9324 58.2017 13.7036L15.2609 58.036Z" fill="url(#paint1_linear_54_3)"/>
<path d="M73.5092 13.3058L91.103 31.1978C92.6934 32.7882 92.6934 36.1678 91.7988 37.1618L83.0516 30.005L81.3618 40.442L74.1056 36.5654L62.3764 44.0204L58.4998 28.4146L52.2376 42.0324L36.433 41.8336C33.451 41.8336 33.8486 38.7522 36.93 35.5714C43.0928 28.8122 55.0208 17.1824 58.798 13.2064C62.774 9.23039 69.5332 9.42919 73.5092 13.3058Z" fill="url(#paint2_linear_54_3)"/>
<path opacity="0.217" d="M49.355 97.8953C49.355 97.8953 51.2436 100.778 51.0448 102.169C50.6472 104.853 44.882 106.245 46.1742 108.63C47.4664 111.016 52.0388 109.624 55.816 112.109C59.5932 114.594 58.5992 119.564 61.3824 120.857C66.75 123.342 81.0636 116.582 80.2684 116.781C79.5726 116.881 66.253 119.664 63.271 117.278C59.8914 114.495 58.8974 112.606 56.313 110.917C53.9274 109.426 50.6472 108.73 49.852 107.537C49.0568 106.245 51.4424 104.654 51.5418 102.269C51.7406 100.678 49.355 97.8953 49.355 97.8953Z" fill="url(#paint3_radial_54_3)"/>
<g opacity="0.276">
<path d="M49.355 97.8953C49.355 97.8953 51.2436 100.778 51.0448 102.169C50.6472 104.853 44.882 106.245 46.1742 108.63C47.4664 111.016 52.0388 109.624 55.816 112.109C59.5932 114.594 58.5992 119.564 61.3824 120.857C66.75 123.342 81.0636 116.582 80.2684 116.781C56.6112 116.881 61.0842 110.817 51.9394 106.742C50.6472 106.145 51.343 104.555 51.5418 102.169C51.7406 100.678 49.355 97.8953 49.355 97.8953Z" fill="url(#paint4_radial_54_3)"/>
</g>
<path opacity="0.453" d="M89.5127 85.4704C110.685 77.7172 117.543 76.6238 124.501 69.5664C116.351 76.425 99.2539 80.1028 85.3379 86.1662L89.5127 85.4704Z" fill="url(#paint5_radial_54_3)"/>
<g opacity="0.512">
<path d="M89.5127 84.4763C124.402 72.1507 118.537 72.1507 124.501 68.5723C113.369 72.8465 92.6935 73.2441 85.3379 85.1721L89.5127 84.4763Z" fill="url(#paint6_radial_54_3)"/>
</g>
<path opacity="0.286" d="M119.929 94.3169C119.929 95.1121 117.941 95.7085 115.357 95.7085C112.872 95.7085 110.784 95.1121 110.784 94.3169C110.784 93.5217 112.772 92.9253 115.357 92.9253C117.941 92.9253 119.929 93.5217 119.929 94.3169Z" fill="url(#paint7_linear_54_3)"/>
<g opacity="0.621">
<path d="M121.52 95.9073C121.52 97.5971 118.736 98.8893 115.456 98.8893C112.077 98.8893 109.393 97.4977 109.393 95.9073C109.393 94.2175 112.176 92.9253 115.456 92.9253C118.836 92.9253 121.52 94.3169 121.52 95.9073Z" fill="url(#paint8_linear_54_3)"/>
</g>
<path d="M107.106 97.5971C109.293 99.5851 121.221 100.579 123.209 97.0007C119.333 99.7839 110.784 98.7899 107.106 97.5971Z" fill="url(#paint9_radial_54_3)"/>
<path opacity="0.286" d="M107.107 104.257C107.504 105.151 107.305 106.145 106.51 106.543C105.715 106.941 104.721 106.543 104.323 105.748C103.926 104.853 104.125 103.859 104.92 103.462C105.715 102.965 106.709 103.362 107.107 104.257Z" fill="url(#paint10_linear_54_3)"/>
<g opacity="0.621">
<path d="M108.001 104.654C108.697 105.947 108.299 107.438 107.106 108.034C105.914 108.63 104.522 108.034 103.826 106.742C103.13 105.45 103.528 103.959 104.721 103.362C105.914 102.766 107.305 103.362 108.001 104.654Z" fill="url(#paint11_linear_54_3)"/>
</g>
<path d="M104.125 108.233C105.814 109.625 112.375 109.724 109.89 105.847C110.586 108.929 106.113 108.631 104.125 108.233Z" fill="url(#paint12_radial_54_3)"/>
<path d="M23.7098 87.8558C23.7098 87.5576 45.9754 94.615 49.7526 98.4916C46.6712 95.4102 30.7672 88.4522 28.3816 88.3528C25.996 88.2534 24.008 88.0546 23.7098 87.8558Z" fill="url(#paint13_radial_54_3)"/>
<path opacity="0.286" d="M40.4411 103.145C40.6271 103.698 39.0192 104.497 36.7476 104.996C34.4759 105.494 32.5889 105.463 32.4028 104.909C32.2167 104.356 33.8246 103.557 36.0963 103.058C38.368 102.56 40.255 102.591 40.4411 103.145Z" fill="url(#paint14_linear_54_3)"/>
<g opacity="0.621">
<path d="M42.2111 103.944C42.6065 105.121 40.4625 106.557 37.5792 107.19C34.6959 107.823 31.9238 107.392 31.5517 106.285C31.1563 105.109 33.3003 103.672 36.1836 103.039C39.0669 102.406 41.8157 102.768 42.2111 103.944Z" fill="url(#paint15_linear_54_3)"/>
</g>
<g opacity="0.616">
<path d="M30.8667 106.742C30.8667 106.742 32.0595 109.923 35.3397 110.122C38.7193 110.32 42.4965 106.146 42.7947 104.655C42.1983 105.947 39.0175 109.823 34.9421 109.724C32.5565 109.724 30.8667 106.742 30.8667 106.742Z" fill="url(#paint16_radial_54_3)"/>
</g>
<path d="M65.8555 7.54077C62.4759 7.54077 59.1957 8.73357 56.9095 11.1192L12.4777 56.6444C8.4023 60.7198 7.4083 63.4036 7.7065 64.8946C7.8059 65.6898 8.2035 66.2862 8.9987 66.982C9.7939 67.6778 10.9867 68.3736 12.3783 68.97C15.2609 70.1628 19.0381 71.1568 22.8153 72.1508C26.5925 73.1448 30.2703 74.2382 33.0535 76.0274C33.4511 76.3256 33.8487 76.6238 34.1469 77.1208C34.4451 77.6178 34.5445 78.2142 34.4451 78.8106C34.2463 79.904 33.5505 80.5004 32.8547 80.9974C31.4631 82.0908 29.5745 82.886 27.6859 83.7806C25.7973 84.6752 23.9087 85.6692 22.9147 86.365C22.4177 86.7626 22.2189 87.0608 22.3183 87.0608C22.3183 87.0608 22.2189 86.7626 22.4177 86.9614C23.0141 87.5578 24.9027 88.6512 27.2883 89.5458C29.6739 90.4404 32.5565 91.4344 35.4391 92.329C38.3217 93.323 41.3037 94.2176 43.7887 95.2116C46.2737 96.2056 48.3611 97.1002 49.6533 98.4918C50.3491 99.1876 50.8461 100.082 50.9455 100.877C51.0449 101.772 50.8461 102.567 50.4485 103.263C49.7527 104.655 48.6593 105.748 47.7647 106.742C46.7707 107.736 45.8761 108.73 45.5779 109.426C45.3791 109.724 45.3791 109.923 45.3791 110.122C45.3791 110.221 45.3791 110.42 45.6773 110.718C46.9695 112.11 49.7527 112.308 52.9335 113.004C54.5239 113.402 56.2137 113.899 57.6053 115.191C58.9969 116.483 60.0903 118.272 60.5873 120.857C60.7861 121.95 61.3825 122.447 62.6747 122.845C64.0663 123.242 66.1537 123.342 68.4399 123.044C73.0123 122.348 78.4793 120.161 81.5607 117.577L81.7595 117.378C81.5607 117.179 81.0637 116.881 80.2685 116.483C79.2745 115.986 78.1811 115.589 77.2865 114.495C76.8889 113.899 76.5907 113.104 76.6901 112.209C76.7895 111.314 77.2865 110.619 77.8829 110.022C83.0517 104.853 88.0217 103.561 91.7989 102.567C93.6875 102.07 95.2779 101.573 96.4707 100.877C97.6635 100.082 98.6575 99.0882 99.4527 97.1002C99.5521 96.9014 99.5521 96.802 99.4527 96.6032C99.3533 96.305 99.0551 95.9074 98.5581 95.5098C97.5641 94.6152 95.8743 93.7206 94.1845 92.7266C92.4947 91.832 90.9043 90.9374 89.7115 89.844C89.1151 89.2476 88.5187 88.6512 88.4193 87.5578C88.3199 86.4644 89.0157 85.5698 89.8109 84.9734C92.7929 82.886 97.2659 81.2956 102.136 79.6058C107.007 77.916 112.275 76.1268 116.45 74.1388C120.724 72.1508 123.806 69.8646 124.8 67.5784C125.297 66.3856 125.396 65.2922 124.899 63.7018C124.402 62.1114 123.209 60.3222 121.022 58.2348L75.0997 11.2186C72.5153 8.73357 69.1357 7.54077 65.8555 7.54077ZM115.357 93.9194C112.474 94.0188 109.89 95.311 108.796 97.3984C109.094 97.4978 109.393 97.6966 109.89 97.796C111.381 98.0942 113.468 98.3924 115.456 98.3924C117.444 98.3924 119.531 98.293 120.824 97.8954C121.321 97.6966 121.619 97.5972 121.818 97.4978C121.519 96.305 120.923 95.5098 119.73 94.9134C118.637 94.1182 116.947 93.82 115.357 93.9194ZM39.3157 103.661C37.0295 103.462 34.2463 104.356 32.8547 105.549C32.1589 106.146 31.8607 106.643 31.8607 106.941C31.8607 107.239 31.9601 107.736 32.8547 108.531C34.3457 109.823 35.9361 109.625 37.8247 108.631C39.4151 107.736 40.8067 106.146 41.7013 104.456C41.1049 104.058 40.3097 103.76 39.3157 103.661ZM105.118 104.356C104.621 104.953 104.423 105.549 104.323 105.947C104.323 106.543 104.423 106.941 104.82 107.338C105.615 108.134 107.305 108.432 109.094 107.438C109.094 107.239 108.995 106.941 108.697 106.543C108.299 105.748 107.007 104.853 105.118 104.356Z" stroke="url(#paint17_radial_54_3)" stroke-width="0.485072"/>
<g opacity="0.325">
<path d="M41.403 78.8105C38.7192 79.6057 30.0714 82.886 31.2642 85.371C32.457 87.7566 52.6352 88.7506 55.7166 95.9074C57.1082 98.9888 52.6352 101.374 53.7286 104.555C54.6232 107.04 61.283 113.203 65.5572 116.185C68.9368 118.471 73.3104 114.296 71.5212 110.917C68.738 105.45 81.3618 98.7899 87.0276 95.7085C90.3078 93.9193 80.169 85.1721 80.169 85.1721L41.403 78.8105Z" fill="url(#paint18_linear_54_3)"/>
</g>
<path d="M42.397 81.2956C44.7826 83.0848 49.5538 81.9914 52.4364 83.2836C59.295 86.365 67.744 89.844 66.1536 83.6812L64.4638 85.1722V82.389L60.3884 83.383C60.3884 83.383 57.2076 80.898 55.816 80.0034C55.5178 79.8046 53.9274 81.395 53.9274 81.395L53.6292 79.7052C51.6412 79.5064 49.6532 79.407 47.864 79.407C43.6892 79.5064 40.906 80.1028 42.397 81.2956Z" fill="url(#paint19_linear_54_3)"/>
<g opacity="0.478">
<path d="M87.4253 86.8618C86.5307 90.2414 98.8563 94.9132 97.8623 97.2988C95.8743 102.468 84.7415 98.9886 76.1931 109.823C75.0003 111.414 77.8829 116.98 77.4853 116.284C77.0877 115.588 74.1057 111.016 74.9009 108.73C77.2865 101.672 100.745 98.9886 96.4707 95.609C93.9857 93.7204 85.1391 88.3528 87.4253 86.8618Z" fill="url(#paint20_radial_54_3)"/>
</g>
<path opacity="0.586" d="M115.158 93.9194C115.158 94.2176 114.561 94.5158 113.766 94.5158C112.971 94.5158 112.375 94.2176 112.375 93.9194C112.375 93.6212 112.971 93.323 113.766 93.323C114.561 93.323 115.158 93.6212 115.158 93.9194ZM106.112 104.257C106.112 104.555 105.715 104.853 105.218 104.853C104.721 104.853 104.323 104.555 104.323 104.257C104.323 103.959 104.721 103.661 105.218 103.661C105.715 103.661 106.112 103.959 106.112 104.257ZM37.8247 103.76C37.8247 104.058 37.1289 104.356 36.3337 104.356C35.5385 104.356 34.8427 104.058 34.8427 103.76C34.8427 103.462 35.5385 103.164 36.3337 103.164C37.1289 103.164 37.8247 103.462 37.8247 103.76Z" fill="white"/>
<path opacity="0.251" d="M36.93 79.1086C29.1768 83.8798 17.2488 85.5696 30.3696 88.7504C28.7792 85.2714 33.7492 85.669 36.93 79.1086Z" fill="url(#paint21_linear_54_3)"/>
<g opacity="0.363">
<path d="M64.3645 122.546C64.3645 122.546 76.2925 121.453 78.9763 117.974C80.5667 115.986 72.6147 113.6 74.3045 111.612C80.7655 104.257 86.2325 104.555 93.7869 101.374C101.341 98.2929 98.5581 96.8019 96.0731 95.4103C91.8983 93.1241 82.5547 90.6391 85.6361 85.0727C88.7175 79.5063 115.854 71.7531 115.854 71.7531C124.104 68.9699 123.01 63.9005 119.034 59.6263L94.8803 35.6709C94.8803 35.6709 96.0731 58.5329 91.2025 68.3735C85.1391 80.4009 53.0329 93.9193 66.4519 95.4103C71.2231 95.9073 73.5093 97.5971 75.3979 101.175C79.3739 108.73 64.3645 122.546 64.3645 122.546Z" fill="url(#paint22_linear_54_3)"/>
</g>
<defs>
<linearGradient id="paint0_linear_54_3" x1="104.845" y1="40.0661" x2="81.5517" y2="61.1279" gradientUnits="userSpaceOnUse">
<stop stop-color="#C0CDF9"/>
<stop offset="1" stop-color="#07092D" stop-opacity="0.288"/>
</linearGradient>
<linearGradient id="paint1_linear_54_3" x1="35.4982" y1="31.6699" x2="62.5513" y2="58.723" gradientUnits="userSpaceOnUse">
<stop stop-color="white"/>
<stop offset="1" stop-color="white" stop-opacity="0"/>
</linearGradient>
<linearGradient id="paint2_linear_54_3" x1="53.559" y1="26.6881" x2="85.7304" y2="58.8595" gradientUnits="userSpaceOnUse">
<stop stop-color="white"/>
<stop offset="1" stop-color="white" stop-opacity="0"/>
</linearGradient>
<radialGradient id="paint3_radial_54_3" cx="0" cy="0" r="1" gradientUnits="userSpaceOnUse" gradientTransform="translate(45.9878 119.635) scale(27.3015 18.256)">
<stop stop-color="white"/>
<stop offset="1" stop-color="white" stop-opacity="0"/>
</radialGradient>
<radialGradient id="paint4_radial_54_3" cx="0" cy="0" r="1" gradientUnits="userSpaceOnUse" gradientTransform="translate(60.4996 120.289) scale(34.8284 23.307)">
<stop stop-color="white"/>
<stop offset="1" stop-color="white" stop-opacity="0"/>
</radialGradient>
<radialGradient id="paint5_radial_54_3" cx="0" cy="0" r="1" gradientUnits="userSpaceOnUse" gradientTransform="translate(104.923 77.8603) scale(19.4362 8.24006)">
<stop stop-color="white"/>
<stop offset="1" stop-color="white" stop-opacity="0"/>
</radialGradient>
<radialGradient id="paint6_radial_54_3" cx="0" cy="0" r="1" gradientUnits="userSpaceOnUse" gradientTransform="translate(109.062 80.1475) scale(19.4362 8.24006)">
<stop stop-color="white"/>
<stop offset="1" stop-color="white" stop-opacity="0"/>
</radialGradient>
<linearGradient id="paint7_linear_54_3" x1="115.405" y1="92.1739" x2="115.476" y2="95.7559" gradientUnits="userSpaceOnUse">
<stop stop-color="white"/>
<stop offset="1" stop-color="white" stop-opacity="0"/>
</linearGradient>
<linearGradient id="paint8_linear_54_3" x1="115.454" y1="91.699" x2="115.454" y2="97.1433" gradientUnits="userSpaceOnUse">
<stop stop-color="white"/>
<stop offset="1" stop-color="white" stop-opacity="0"/>
</linearGradient>
<radialGradient id="paint9_radial_54_3" cx="0" cy="0" r="1" gradientUnits="userSpaceOnUse" gradientTransform="translate(115.182 98.2262) scale(7.99794 1.18601)">
<stop stop-color="white"/>
<stop offset="1" stop-color="white" stop-opacity="0"/>
</radialGradient>
<linearGradient id="paint10_linear_54_3" x1="104.743" y1="103.252" x2="106.506" y2="106.367" gradientUnits="userSpaceOnUse">
<stop stop-color="white"/>
<stop offset="1" stop-color="white" stop-opacity="0"/>
</linearGradient>
<linearGradient id="paint11_linear_54_3" x1="104.069" y1="102.122" x2="106.538" y2="106.973" gradientUnits="userSpaceOnUse">
<stop stop-color="white"/>
<stop offset="1" stop-color="white" stop-opacity="0"/>
</linearGradient>
<radialGradient id="paint12_radial_54_3" cx="0" cy="0" r="1" gradientUnits="userSpaceOnUse" gradientTransform="translate(107.686 109.193) rotate(-26.9028) scale(3.46125 1.17642)">
<stop stop-color="white"/>
<stop offset="1" stop-color="white" stop-opacity="0"/>
</radialGradient>
<radialGradient id="paint13_radial_54_3" cx="0" cy="0" r="1" gradientUnits="userSpaceOnUse" gradientTransform="translate(36.1951 91.4579) scale(12.9101 5.25238)">
<stop stop-color="white" stop-opacity="0.33"/>
<stop offset="1" stop-color="white" stop-opacity="0"/>
</radialGradient>
<linearGradient id="paint14_linear_54_3" x1="35.8674" y1="102.523" x2="35.9718" y2="104.406" gradientUnits="userSpaceOnUse">
<stop stop-color="white"/>
<stop offset="1" stop-color="white" stop-opacity="0"/>
</linearGradient>
<linearGradient id="paint15_linear_54_3" x1="35.8896" y1="102.187" x2="35.7406" y2="104.959" gradientUnits="userSpaceOnUse">
<stop stop-color="white"/>
<stop offset="1" stop-color="white" stop-opacity="0"/>
</linearGradient>
<radialGradient id="paint16_radial_54_3" cx="0" cy="0" r="1" gradientUnits="userSpaceOnUse" gradientTransform="translate(36.3304 110.068) rotate(-15.4957) scale(7.31382 2.73218)">
<stop stop-color="white"/>
<stop offset="1" stop-color="white" stop-opacity="0"/>
</radialGradient>
<radialGradient id="paint17_radial_54_3" cx="0" cy="0" r="1" gradientUnits="userSpaceOnUse" gradientTransform="translate(71.2508 20.1233) scale(101.125 99.5303)">
<stop stop-color="white"/>
<stop offset="1" stop-color="white" stop-opacity="0"/>
</radialGradient>
<linearGradient id="paint18_linear_54_3" x1="42.8526" y1="92.8986" x2="73.2011" y2="100.923" gradientUnits="userSpaceOnUse">
<stop stop-color="white"/>
<stop offset="1" stop-color="white" stop-opacity="0"/>
</linearGradient>
<linearGradient id="paint19_linear_54_3" x1="56.1238" y1="78.6388" x2="52.7124" y2="86.4553" gradientUnits="userSpaceOnUse">
<stop stop-color="#EEEEEC"/>
<stop offset="1" stop-color="#EEEEEC" stop-opacity="0"/>
</linearGradient>
<radialGradient id="paint20_radial_54_3" cx="0" cy="0" r="1" gradientUnits="userSpaceOnUse" gradientTransform="translate(86.6108 101.242) scale(15.9006 20.2151)">
<stop stop-color="white"/>
<stop offset="1" stop-color="white" stop-opacity="0"/>
</radialGradient>
<linearGradient id="paint21_linear_54_3" x1="29.9422" y1="82.1544" x2="34.7222" y2="85.952" gradientUnits="userSpaceOnUse">
<stop stop-color="white"/>
<stop offset="1" stop-color="white" stop-opacity="0"/>
</linearGradient>
<linearGradient id="paint22_linear_54_3" x1="95.4685" y1="99.4785" x2="81.282" y2="61.2811" gradientUnits="userSpaceOnUse">
<stop stop-color="#729FCF"/>
<stop offset="1" stop-color="#729FCF" stop-opacity="0"/>
</linearGradient>
</defs>
</svg>
