<svg width="34" height="34" viewBox="0 0 34 34" fill="none" xmlns="http://www.w3.org/2000/svg">
<rect width="34" height="34" fill="black"/>
<path d="M12.8 7H21.2C24.4 7 27 9.6 27 12.8V21.2C27 22.7383 26.3889 24.2135 25.3012 25.3012C24.2135 26.3889 22.7383 27 21.2 27H12.8C9.6 27 7 24.4 7 21.2V12.8C7 11.2617 7.61107 9.78649 8.69878 8.69878C9.78649 7.61107 11.2617 7 12.8 7ZM12.6 9C11.6452 9 10.7295 9.37928 10.0544 10.0544C9.37928 10.7295 9 11.6452 9 12.6V21.4C9 23.39 10.61 25 12.6 25H21.4C22.3548 25 23.2705 24.6207 23.9456 23.9456C24.6207 23.2705 25 22.3548 25 21.4V12.6C25 10.61 23.39 9 21.4 9H12.6ZM22.25 10.5C22.5815 10.5 22.8995 10.6317 23.1339 10.8661C23.3683 11.1005 23.5 11.4185 23.5 11.75C23.5 12.0815 23.3683 12.3995 23.1339 12.6339C22.8995 12.8683 22.5815 13 22.25 13C21.9185 13 21.6005 12.8683 21.3661 12.6339C21.1317 12.3995 21 12.0815 21 11.75C21 11.4185 21.1317 11.1005 21.3661 10.8661C21.6005 10.6317 21.9185 10.5 22.25 10.5ZM17 12C18.3261 12 19.5979 12.5268 20.5355 13.4645C21.4732 14.4021 22 15.6739 22 17C22 18.3261 21.4732 19.5979 20.5355 20.5355C19.5979 21.4732 18.3261 22 17 22C15.6739 22 14.4021 21.4732 13.4645 20.5355C12.5268 19.5979 12 18.3261 12 17C12 15.6739 12.5268 14.4021 13.4645 13.4645C14.4021 12.5268 15.6739 12 17 12ZM17 14C16.2044 14 15.4413 14.3161 14.8787 14.8787C14.3161 15.4413 14 16.2044 14 17C14 17.7956 14.3161 18.5587 14.8787 19.1213C15.4413 19.6839 16.2044 20 17 20C17.7956 20 18.5587 19.6839 19.1213 19.1213C19.6839 18.5587 20 17.7956 20 17C20 16.2044 19.6839 15.4413 19.1213 14.8787C18.5587 14.3161 17.7956 14 17 14Z" fill="white"/>
</svg>
