<svg width="24" height="24" viewBox="0 0 24 24" fill="none" xmlns="http://www.w3.org/2000/svg">
<path fill-rule="evenodd" clip-rule="evenodd" d="M6.77012 3.08177C10.2462 2.6967 13.7541 2.6967 17.2301 3.08177C19.1291 3.29377 20.6601 4.78877 20.8831 6.69477C21.2951 10.2194 21.2951 13.7801 20.8831 17.3048C20.6601 19.2108 19.1291 20.7058 17.2311 20.9188C13.7548 21.3039 10.2465 21.3039 6.77012 20.9188C4.87112 20.7058 3.34012 19.2108 3.11712 17.3058C2.7051 13.7808 2.7051 10.2198 3.11712 6.69477C3.34012 4.78877 4.87112 3.29377 6.77012 3.08177ZM16.4101 8.97977L17.2501 8.17677V7.99977H14.3481L12.2791 13.1598L9.92712 7.99977H6.88312V8.17677L7.86312 9.35677C7.91112 9.39913 7.94825 9.45239 7.97139 9.51207C7.99453 9.57176 8.00301 9.63613 7.99612 9.69977V14.3408C8.01044 14.4232 8.00504 14.5079 7.98036 14.5878C7.95568 14.6678 7.91242 14.7408 7.85412 14.8008L6.75012 16.1408V16.3158H9.87712V16.1398L8.77412 14.8018C8.71535 14.7418 8.67109 14.6691 8.64474 14.5894C8.61839 14.5097 8.61066 14.425 8.62212 14.3418V10.3278L11.3671 16.3168H11.6871L14.0441 10.3278V15.1008C14.0441 15.2278 14.0441 15.2518 13.9601 15.3358L13.1121 16.1588V16.3348H17.2291V16.1588L16.4111 15.3548C16.376 15.3275 16.3487 15.2914 16.3322 15.25C16.3157 15.2087 16.3105 15.1638 16.3171 15.1198V9.21477C16.3105 9.17078 16.3157 9.12581 16.3322 9.0845C16.3487 9.04319 16.375 9.00703 16.4101 8.97977Z" fill="black"/>
</svg>
