<svg width="28" height="28" viewBox="0 0 28 28" fill="none" xmlns="http://www.w3.org/2000/svg">
<path d="M22.098 2C22.6106 1.99974 23.1182 2.10052 23.5918 2.29658C24.0654 2.49265 24.4957 2.78014 24.8581 3.14264C25.2205 3.50513 25.5079 3.9355 25.7038 4.40915C25.8997 4.8828 26.0004 5.39042 26 5.903V22.097C26.0004 22.6096 25.8997 23.1172 25.7038 23.5908C25.5079 24.0645 25.2205 24.4949 24.8581 24.8574C24.4957 25.2199 24.0654 25.5074 23.5918 25.7034C23.1182 25.8995 22.6106 26.0003 22.098 26H8.393L8.342 15.66V15.586C8.342 11.666 11.454 8.496 15.305 8.496C17.615 8.496 19.482 10.398 19.482 12.75C19.482 15.102 17.615 17.004 15.305 17.004C14.535 17.004 13.912 16.37 13.912 15.586C13.912 14.802 14.535 14.168 15.305 14.168C16.074 14.168 16.697 13.534 16.697 12.75C16.697 11.966 16.074 11.332 15.305 11.332C12.995 11.332 11.127 13.232 11.127 15.585C11.127 17.937 12.995 19.839 15.305 19.839C19.155 19.839 22.267 16.67 22.267 12.749C22.267 8.828 19.155 5.66 15.305 5.66C9.915 5.66 5.555 10.096 5.555 15.585V15.671L5.578 25.986C4.60234 25.9052 3.69277 25.4604 3.02991 24.7399C2.36706 24.0194 1.99942 23.076 2 22.097V5.903C1.99961 5.39042 2.10026 4.8828 2.2962 4.40915C2.49214 3.9355 2.77953 3.50513 3.14193 3.14264C3.50433 2.78014 3.93463 2.49265 4.40823 2.29658C4.88182 2.10052 5.38943 1.99974 5.902 2H22.098Z" fill="black"/>
</svg>
