<svg width="1024" height="892" viewBox="0 0 1024 892" fill="none" xmlns="http://www.w3.org/2000/svg">
<g clip-path="url(#clip0_63_15)">
<path d="M224 158V862H800V158H224ZM212 114H812C820.487 114 828.626 117.371 834.627 123.373C840.629 129.374 844 137.513 844 146V510V874C844 882.487 840.629 890.626 834.627 896.627C828.626 902.629 820.487 906 812 906H212C203.513 906 195.374 902.629 189.373 896.627C183.371 890.626 180 882.487 180 874V146C180 137.513 183.371 129.374 189.373 123.373C195.374 117.371 203.513 114 212 114Z" fill="black"/>
<path d="M64 872H960V916H64V872ZM320 212H448V308H320V212Z" fill="black"/>
<path d="M320 404H448V500H320V404ZM576 212H704V308H576V212ZM576 404H704V500H576V404Z" fill="black"/>
<path d="M375 862V685H649.5V862" stroke="black" stroke-width="30"/>
</g>
<defs>
<clipPath id="clip0_63_15">
<rect width="1024" height="892" fill="white"/>
</clipPath>
</defs>
</svg>
