<svg width="1486" height="1486" viewBox="0 0 1486 1486" fill="none" xmlns="http://www.w3.org/2000/svg">
<rect width="1486" height="1486" rx="10" fill="#0D0D0D"/>
<path d="M217.501 705.058C235.12 705.058 248.792 709.699 258.518 718.982C268.243 728.266 273.642 738.812 274.716 750.621H256.339C254.255 741.654 250.087 734.549 243.835 729.308C237.646 724.066 228.931 721.445 217.69 721.445C203.987 721.445 192.904 726.276 184.441 735.938C176.042 745.537 171.843 760.283 171.843 780.176C171.843 796.469 175.632 809.699 183.21 819.866C190.851 829.97 202.218 835.022 217.312 835.022C231.205 835.022 241.783 829.686 249.045 819.014C252.897 813.393 255.771 806.005 257.665 796.848H276.042C274.4 811.499 268.969 823.782 259.749 833.696C248.698 845.632 233.794 851.6 215.038 851.6C198.871 851.6 185.294 846.705 174.306 836.917C159.844 823.971 152.613 803.984 152.613 776.955C152.613 756.431 158.044 739.601 168.906 726.466C180.652 712.194 196.851 705.058 217.501 705.058ZM303.323 708.847H322.363V848H303.323V708.847ZM454.317 708.847V725.424H407.428V848H388.293V725.424H341.403V708.847H454.317ZM523.941 767.672C531.898 767.672 538.087 766.567 542.508 764.356C549.454 760.883 552.928 754.631 552.928 745.601C552.928 736.507 549.233 730.381 541.845 727.224C537.677 725.455 531.488 724.571 523.278 724.571H489.65V767.672H523.941ZM530.288 831.896C541.845 831.896 550.086 828.549 555.012 821.855C558.106 817.624 559.653 812.509 559.653 806.51C559.653 796.406 555.138 789.522 546.107 785.859C541.308 783.902 534.961 782.923 527.067 782.923H489.65V831.896H530.288ZM471.179 708.847H530.951C547.244 708.847 558.832 713.709 565.716 723.435C569.757 729.181 571.778 735.812 571.778 743.327C571.778 752.105 569.284 759.304 564.295 764.925C561.706 767.893 557.98 770.608 553.117 773.071C560.253 775.787 565.59 778.85 569.126 782.26C575.378 788.322 578.504 796.69 578.504 807.362C578.504 816.33 575.694 824.445 570.073 831.707C561.674 842.569 548.318 848 530.004 848H471.179V708.847ZM641.023 744.274C648.223 744.274 655.201 745.979 661.958 749.39C668.715 752.737 673.862 757.094 677.398 762.462C680.809 767.577 683.082 773.545 684.219 780.365C685.229 785.038 685.734 792.49 685.734 802.721H611.374C611.69 813.014 614.121 821.287 618.668 827.539C623.215 833.728 630.256 836.822 639.792 836.822C648.696 836.822 655.801 833.886 661.105 828.013C664.137 824.603 666.284 820.656 667.547 816.172H684.313C683.871 819.898 682.387 824.066 679.861 828.676C677.398 833.223 674.62 836.949 671.525 839.854C666.347 844.906 659.937 848.316 652.296 850.084C648.191 851.094 643.549 851.6 638.371 851.6C625.741 851.6 615.037 847.021 606.259 837.864C597.481 828.644 593.092 815.761 593.092 799.216C593.092 782.923 597.512 769.693 606.354 759.525C615.195 749.358 626.751 744.274 641.023 744.274ZM668.21 789.175C667.515 781.786 665.905 775.882 663.379 771.461C658.706 763.251 650.907 759.146 639.981 759.146C632.151 759.146 625.583 761.988 620.278 767.672C614.974 773.292 612.163 780.46 611.848 789.175H668.21ZM706.764 746.548H722.962V760.946C727.761 755.01 732.845 750.747 738.213 748.158C743.581 745.569 749.549 744.274 756.116 744.274C770.515 744.274 780.24 749.295 785.292 759.336C788.071 764.83 789.46 772.692 789.46 782.923V848H772.125V784.06C772.125 777.871 771.209 772.882 769.378 769.093C766.347 762.778 760.853 759.62 752.896 759.62C748.854 759.62 745.538 760.031 742.949 760.852C738.276 762.241 734.171 765.02 730.635 769.188C727.793 772.535 725.93 776.008 725.046 779.607C724.225 783.144 723.814 788.228 723.814 794.858V848H706.764V746.548ZM850.559 744.748C858.516 744.748 865.462 746.706 871.398 750.621C874.619 752.831 877.903 756.052 881.25 760.283V747.495H896.975V839.759C896.975 852.642 895.08 862.809 891.291 870.261C884.218 884.028 870.862 890.911 851.222 890.911C840.297 890.911 831.108 888.448 823.656 883.522C816.204 878.66 812.036 871.019 811.152 860.599H828.487C829.308 865.146 830.95 868.65 833.413 871.113C837.265 874.902 843.328 876.797 851.601 876.797C864.673 876.797 873.23 872.187 877.271 862.967C879.671 857.536 880.776 847.842 880.587 833.886C877.177 839.064 873.072 842.916 868.272 845.442C863.473 847.968 857.126 849.231 849.232 849.231C838.244 849.231 828.614 845.348 820.341 837.58C812.131 829.749 808.026 816.835 808.026 798.837C808.026 781.849 812.163 768.588 820.436 759.052C828.771 749.516 838.812 744.748 850.559 744.748ZM881.25 796.848C881.25 784.281 878.661 774.966 873.482 768.903C868.304 762.841 861.705 759.81 853.685 759.81C841.686 759.81 833.476 765.43 829.056 776.671C826.719 782.67 825.551 790.533 825.551 800.258C825.551 811.688 827.856 820.403 832.466 826.402C837.139 832.339 843.391 835.307 851.222 835.307C863.473 835.307 872.093 829.781 877.082 818.729C879.861 812.478 881.25 805.184 881.25 796.848ZM935.812 821.003C935.812 825.929 937.612 829.812 941.212 832.654C944.812 835.496 949.074 836.917 954 836.917C959.999 836.917 965.809 835.528 971.43 832.749C980.902 828.139 985.639 820.592 985.639 810.109V796.374C983.555 797.7 980.871 798.805 977.587 799.689C974.303 800.574 971.082 801.205 967.925 801.584L957.6 802.91C951.411 803.731 946.769 805.026 943.675 806.794C938.433 809.762 935.812 814.498 935.812 821.003ZM977.113 786.522C981.029 786.017 983.649 784.375 984.976 781.597C985.733 780.081 986.112 777.902 986.112 775.061C986.112 769.251 984.028 765.051 979.86 762.462C975.756 759.81 969.851 758.483 962.146 758.483C953.242 758.483 946.927 760.883 943.201 765.683C941.117 768.335 939.759 772.282 939.128 777.523H923.214C923.53 765.02 927.571 756.336 935.339 751.474C943.17 746.548 952.232 744.085 962.525 744.085C974.461 744.085 984.155 746.358 991.606 750.905C998.995 755.452 1002.69 762.525 1002.69 772.124V830.57C1002.69 832.339 1003.04 833.759 1003.73 834.833C1004.49 835.907 1006.04 836.443 1008.37 836.443C1009.13 836.443 1009.98 836.412 1010.93 836.349C1011.88 836.222 1012.89 836.064 1013.96 835.875V848.474C1011.31 849.231 1009.29 849.705 1007.9 849.895C1006.51 850.084 1004.62 850.179 1002.22 850.179C996.343 850.179 992.08 848.095 989.428 843.927C988.038 841.716 987.06 838.59 986.491 834.549C983.018 839.096 978.029 843.043 971.524 846.39C965.02 849.737 957.852 851.41 950.021 851.41C940.612 851.41 932.908 848.568 926.908 842.885C920.972 837.138 918.004 829.97 918.004 821.382C918.004 811.972 920.94 804.678 926.813 799.5C932.687 794.322 940.391 791.132 949.927 789.933L977.113 786.522ZM1031.2 708.847H1048.25V848H1031.2V708.847ZM1090.97 746.548V813.898C1090.97 819.077 1091.8 823.308 1093.44 826.592C1096.47 832.654 1102.12 835.686 1110.39 835.686C1122.27 835.686 1130.35 830.381 1134.64 819.771C1136.98 814.088 1138.15 806.289 1138.15 796.374V746.548H1155.2V848H1139.1L1139.29 833.033C1137.07 836.885 1134.33 840.138 1131.04 842.79C1124.54 848.095 1116.65 850.747 1107.36 850.747C1092.9 850.747 1083.05 845.916 1077.81 836.254C1074.97 831.076 1073.54 824.16 1073.54 815.509V746.548H1090.97ZM1182.39 746.548H1198.58V764.072C1199.91 760.662 1203.16 756.526 1208.34 751.663C1213.52 746.737 1219.49 744.274 1226.24 744.274C1226.56 744.274 1227.1 744.306 1227.85 744.369C1228.61 744.432 1229.91 744.559 1231.74 744.748V762.746C1230.73 762.557 1229.78 762.43 1228.9 762.367C1228.08 762.304 1227.16 762.272 1226.15 762.272C1217.56 762.272 1210.96 765.051 1206.35 770.608C1201.74 776.103 1199.44 782.449 1199.44 789.648V848H1182.39V746.548ZM1263.57 746.548V813.898C1263.57 819.077 1264.39 823.308 1266.03 826.592C1269.06 832.654 1274.71 835.686 1282.99 835.686C1294.86 835.686 1302.94 830.381 1307.24 819.771C1309.57 814.088 1310.74 806.289 1310.74 796.374V746.548H1327.79V848H1311.69L1311.88 833.033C1309.67 836.885 1306.92 840.138 1303.64 842.79C1297.13 848.095 1289.24 850.747 1279.95 850.747C1265.49 850.747 1255.64 845.916 1250.4 836.254C1247.56 831.076 1246.14 824.16 1246.14 815.509V746.548H1263.57Z" fill="white"/>
<path d="M144.711 948L154.883 932.906L145.148 918.25H154.691L159.668 926.891L164.535 918.25H173.805L164.016 932.77L174.188 948H164.48L159.34 939.059L154.172 948H144.711Z" fill="#EB0028"/>
<path d="M221.223 924.971V931.648H193.725V924.971H221.223ZM221.223 936.828V943.506H193.725V936.828H221.223ZM247.527 917.023H240.189V910.346H247.527V917.023ZM240.189 920.324H247.527V948H240.189V920.324ZM269.896 919.664C272.757 919.664 275.093 920.417 276.904 921.924C278.732 923.413 279.646 925.893 279.646 929.363V948H272.232V931.166C272.232 929.71 272.038 928.593 271.648 927.814C270.938 926.393 269.583 925.682 267.586 925.682C265.132 925.682 263.447 926.723 262.533 928.805C262.059 929.905 261.822 931.31 261.822 933.02V948H254.611V920.375H261.594V924.412C262.525 922.99 263.405 921.966 264.234 921.34C265.724 920.223 267.611 919.664 269.896 919.664ZM296.557 919.664C298.232 919.664 299.722 920.036 301.025 920.781C302.329 921.509 303.387 922.525 304.199 923.828V910.625H311.537V948H304.504V944.166C303.471 945.808 302.295 947.001 300.975 947.746C299.654 948.491 298.012 948.863 296.049 948.863C292.816 948.863 290.09 947.56 287.873 944.953C285.673 942.329 284.572 938.969 284.572 934.873C284.572 930.15 285.656 926.435 287.822 923.727C290.006 921.018 292.917 919.664 296.557 919.664ZM298.131 942.77C300.179 942.77 301.736 942.008 302.803 940.484C303.869 938.961 304.402 936.989 304.402 934.568C304.402 931.183 303.548 928.762 301.838 927.307C300.788 926.426 299.57 925.986 298.182 925.986C296.066 925.986 294.508 926.79 293.51 928.398C292.528 929.99 292.037 931.97 292.037 934.34C292.037 936.896 292.536 938.944 293.535 940.484C294.551 942.008 296.083 942.77 298.131 942.77ZM329.057 925.555C327.381 925.555 326.077 926.079 325.146 927.129C324.232 928.178 323.657 929.6 323.42 931.395H334.668C334.549 929.482 333.965 928.035 332.916 927.053C331.883 926.054 330.597 925.555 329.057 925.555ZM329.057 919.588C331.359 919.588 333.432 920.02 335.277 920.883C337.122 921.746 338.646 923.109 339.848 924.971C340.931 926.613 341.633 928.517 341.955 930.684C342.141 931.953 342.217 933.781 342.184 936.168H323.242C323.344 938.944 324.215 940.891 325.857 942.008C326.856 942.702 328.058 943.049 329.463 943.049C330.952 943.049 332.163 942.626 333.094 941.779C333.602 941.322 334.05 940.688 334.439 939.875H341.828C341.642 941.517 340.787 943.184 339.264 944.877C336.894 947.568 333.576 948.914 329.311 948.914C325.79 948.914 322.684 947.78 319.992 945.512C317.301 943.243 315.955 939.553 315.955 934.441C315.955 929.651 317.165 925.978 319.586 923.422C322.023 920.866 325.18 919.588 329.057 919.588ZM366.152 934.162C366.152 932.029 365.661 930.142 364.68 928.5C363.715 926.858 362.141 926.037 359.957 926.037C357.333 926.037 355.531 927.281 354.549 929.77C354.041 931.09 353.787 932.766 353.787 934.797C353.787 938.013 354.642 940.273 356.352 941.576C357.367 942.338 358.569 942.719 359.957 942.719C361.971 942.719 363.503 941.94 364.553 940.383C365.619 938.826 366.152 936.752 366.152 934.162ZM362.039 919.715C365.272 919.715 368.006 920.908 370.24 923.295C372.492 925.682 373.617 929.186 373.617 933.807C373.617 938.682 372.517 942.397 370.316 944.953C368.133 947.509 365.314 948.787 361.861 948.787C359.661 948.787 357.833 948.237 356.377 947.137C355.581 946.527 354.803 945.639 354.041 944.471V958.893H346.881V920.324H353.812V924.412C354.591 923.21 355.421 922.262 356.301 921.568C357.909 920.333 359.822 919.715 362.039 919.715ZM389.791 925.555C388.115 925.555 386.812 926.079 385.881 927.129C384.967 928.178 384.391 929.6 384.154 931.395H395.402C395.284 929.482 394.7 928.035 393.65 927.053C392.618 926.054 391.331 925.555 389.791 925.555ZM389.791 919.588C392.093 919.588 394.167 920.02 396.012 920.883C397.857 921.746 399.38 923.109 400.582 924.971C401.665 926.613 402.368 928.517 402.689 930.684C402.876 931.953 402.952 933.781 402.918 936.168H383.977C384.078 938.944 384.95 940.891 386.592 942.008C387.59 942.702 388.792 943.049 390.197 943.049C391.687 943.049 392.897 942.626 393.828 941.779C394.336 941.322 394.785 940.688 395.174 939.875H402.562C402.376 941.517 401.521 943.184 399.998 944.877C397.628 947.568 394.311 948.914 390.045 948.914C386.524 948.914 383.418 947.78 380.727 945.512C378.035 943.243 376.689 939.553 376.689 934.441C376.689 929.651 377.9 925.978 380.32 923.422C382.758 920.866 385.915 919.588 389.791 919.588ZM423.154 919.664C426.015 919.664 428.351 920.417 430.162 921.924C431.99 923.413 432.904 925.893 432.904 929.363V948H425.49V931.166C425.49 929.71 425.296 928.593 424.906 927.814C424.195 926.393 422.841 925.682 420.844 925.682C418.389 925.682 416.705 926.723 415.791 928.805C415.317 929.905 415.08 931.31 415.08 933.02V948H407.869V920.375H414.852V924.412C415.783 922.99 416.663 921.966 417.492 921.34C418.982 920.223 420.869 919.664 423.154 919.664ZM449.814 919.664C451.49 919.664 452.98 920.036 454.283 920.781C455.587 921.509 456.645 922.525 457.457 923.828V910.625H464.795V948H457.762V944.166C456.729 945.808 455.553 947.001 454.232 947.746C452.912 948.491 451.27 948.863 449.307 948.863C446.074 948.863 443.348 947.56 441.131 944.953C438.93 942.329 437.83 938.969 437.83 934.873C437.83 930.15 438.913 926.435 441.08 923.727C443.264 921.018 446.175 919.664 449.814 919.664ZM451.389 942.77C453.437 942.77 454.994 942.008 456.061 940.484C457.127 938.961 457.66 936.989 457.66 934.568C457.66 931.183 456.805 928.762 455.096 927.307C454.046 926.426 452.827 925.986 451.439 925.986C449.324 925.986 447.766 926.79 446.768 928.398C445.786 929.99 445.295 931.97 445.295 934.34C445.295 936.896 445.794 938.944 446.793 940.484C447.809 942.008 449.34 942.77 451.389 942.77ZM482.314 925.555C480.639 925.555 479.335 926.079 478.404 927.129C477.49 928.178 476.915 929.6 476.678 931.395H487.926C487.807 929.482 487.223 928.035 486.174 927.053C485.141 926.054 483.855 925.555 482.314 925.555ZM482.314 919.588C484.617 919.588 486.69 920.02 488.535 920.883C490.38 921.746 491.904 923.109 493.105 924.971C494.189 926.613 494.891 928.517 495.213 930.684C495.399 931.953 495.475 933.781 495.441 936.168H476.5C476.602 938.944 477.473 940.891 479.115 942.008C480.114 942.702 481.316 943.049 482.721 943.049C484.21 943.049 485.421 942.626 486.352 941.779C486.859 941.322 487.308 940.688 487.697 939.875H495.086C494.9 941.517 494.045 943.184 492.521 944.877C490.152 947.568 486.834 948.914 482.568 948.914C479.048 948.914 475.941 947.78 473.25 945.512C470.559 943.243 469.213 939.553 469.213 934.441C469.213 929.651 470.423 925.978 472.844 923.422C475.281 920.866 478.438 919.588 482.314 919.588ZM515.678 919.664C518.538 919.664 520.874 920.417 522.686 921.924C524.514 923.413 525.428 925.893 525.428 929.363V948H518.014V931.166C518.014 929.71 517.819 928.593 517.43 927.814C516.719 926.393 515.365 925.682 513.367 925.682C510.913 925.682 509.229 926.723 508.314 928.805C507.84 929.905 507.604 931.31 507.604 933.02V948H500.393V920.375H507.375V924.412C508.306 922.99 509.186 921.966 510.016 921.34C511.505 920.223 513.393 919.664 515.678 919.664ZM529.287 925.732V920.578H533.146V912.859H540.307V920.578H544.801V925.732H540.307V940.357C540.307 941.492 540.451 942.202 540.738 942.49C541.026 942.761 541.906 942.896 543.379 942.896C543.599 942.896 543.827 942.896 544.064 942.896C544.318 942.88 544.564 942.863 544.801 942.846V948.254L541.373 948.381C537.954 948.499 535.618 947.907 534.365 946.604C533.553 945.774 533.146 944.496 533.146 942.77V925.732H529.287ZM556.836 948H549.6V910.574H556.836V948ZM565.037 953.307L565.951 953.357C566.662 953.391 567.339 953.366 567.982 953.281C568.626 953.197 569.167 953.002 569.607 952.697C570.031 952.41 570.42 951.809 570.775 950.895C571.148 949.98 571.3 949.422 571.232 949.219L561.076 920.324H569.125L575.168 940.738L580.881 920.324H588.574L579.078 947.543C577.25 952.79 575.803 956.04 574.736 957.293C573.67 958.562 571.537 959.197 568.338 959.197C567.695 959.197 567.178 959.189 566.789 959.172C566.4 959.172 565.816 959.146 565.037 959.096V953.307ZM619.754 942.896C621.87 942.896 623.495 942.143 624.629 940.637C625.763 939.13 626.33 936.989 626.33 934.213C626.33 931.437 625.763 929.304 624.629 927.814C623.495 926.308 621.87 925.555 619.754 925.555C617.638 925.555 616.005 926.308 614.854 927.814C613.719 929.304 613.152 931.437 613.152 934.213C613.152 936.989 613.719 939.13 614.854 940.637C616.005 942.143 617.638 942.896 619.754 942.896ZM633.922 934.213C633.922 938.275 632.754 941.754 630.418 944.648C628.082 947.526 624.536 948.965 619.779 948.965C615.023 948.965 611.477 947.526 609.141 944.648C606.805 941.754 605.637 938.275 605.637 934.213C605.637 930.218 606.805 926.757 609.141 923.828C611.477 920.9 615.023 919.436 619.779 919.436C624.536 919.436 628.082 920.9 630.418 923.828C632.754 926.757 633.922 930.218 633.922 934.213ZM654.158 919.664C654.294 919.664 654.404 919.673 654.488 919.689C654.59 919.689 654.801 919.698 655.123 919.715V927.129C654.666 927.078 654.26 927.044 653.904 927.027C653.549 927.01 653.261 927.002 653.041 927.002C650.13 927.002 648.174 927.95 647.176 929.846C646.617 930.912 646.338 932.554 646.338 934.771V948H639.051V920.324H645.957V925.148C647.074 923.303 648.048 922.042 648.877 921.365C650.231 920.231 651.992 919.664 654.158 919.664ZM671.271 942.059C672.964 942.059 674.395 941.424 675.562 940.154C676.73 938.868 677.314 936.828 677.314 934.035C677.314 931.411 676.756 929.414 675.639 928.043C674.538 926.672 673.057 925.986 671.195 925.986C668.656 925.986 666.904 927.18 665.939 929.566C665.432 930.836 665.178 932.402 665.178 934.264C665.178 935.872 665.449 937.302 665.99 938.555C666.972 940.891 668.732 942.059 671.271 942.059ZM669.469 919.664C670.857 919.664 672.067 919.876 673.1 920.299C674.86 921.027 676.282 922.364 677.365 924.311V920.324H684.398V946.578C684.398 950.15 683.798 952.841 682.596 954.652C680.531 957.767 676.57 959.324 670.713 959.324C667.175 959.324 664.289 958.63 662.055 957.242C659.82 955.854 658.585 953.781 658.348 951.021H666.219C666.422 951.868 666.752 952.477 667.209 952.85C667.988 953.51 669.299 953.84 671.145 953.84C673.751 953.84 675.495 952.968 676.375 951.225C676.951 950.107 677.238 948.229 677.238 945.588V943.811C676.544 944.995 675.799 945.884 675.004 946.477C673.565 947.577 671.695 948.127 669.393 948.127C665.838 948.127 662.994 946.883 660.861 944.395C658.745 941.889 657.688 938.504 657.688 934.238C657.688 930.125 658.712 926.672 660.76 923.879C662.808 921.069 665.711 919.664 669.469 919.664ZM706.438 934.543C705.98 934.831 705.515 935.068 705.041 935.254C704.584 935.423 703.949 935.584 703.137 935.736L701.512 936.041C699.988 936.312 698.896 936.642 698.236 937.031C697.119 937.691 696.561 938.715 696.561 940.104C696.561 941.339 696.899 942.236 697.576 942.795C698.27 943.337 699.108 943.607 700.09 943.607C701.647 943.607 703.077 943.15 704.381 942.236C705.701 941.322 706.387 939.655 706.438 937.234V934.543ZM702.045 931.166C703.382 930.997 704.339 930.785 704.914 930.531C705.947 930.091 706.463 929.406 706.463 928.475C706.463 927.34 706.065 926.562 705.27 926.139C704.491 925.699 703.34 925.479 701.816 925.479C700.107 925.479 698.896 925.902 698.186 926.748C697.678 927.374 697.339 928.221 697.17 929.287H690.188C690.34 926.867 691.017 924.878 692.219 923.32C694.132 920.883 697.415 919.664 702.07 919.664C705.1 919.664 707.792 920.265 710.145 921.467C712.497 922.669 713.674 924.937 713.674 928.271V940.967C713.674 941.847 713.691 942.913 713.725 944.166C713.775 945.114 713.919 945.757 714.156 946.096C714.393 946.434 714.749 946.714 715.223 946.934V948H707.352C707.132 947.441 706.979 946.917 706.895 946.426C706.81 945.935 706.742 945.376 706.691 944.75C705.693 945.833 704.542 946.756 703.238 947.518C701.681 948.415 699.921 948.863 697.957 948.863C695.452 948.863 693.378 948.152 691.736 946.73C690.111 945.292 689.299 943.26 689.299 940.637C689.299 937.234 690.611 934.771 693.234 933.248C694.673 932.419 696.789 931.826 699.582 931.471L702.045 931.166ZM735.459 919.664C738.32 919.664 740.656 920.417 742.467 921.924C744.295 923.413 745.209 925.893 745.209 929.363V948H737.795V931.166C737.795 929.71 737.6 928.593 737.211 927.814C736.5 926.393 735.146 925.682 733.148 925.682C730.694 925.682 729.01 926.723 728.096 928.805C727.622 929.905 727.385 931.31 727.385 933.02V948H720.174V920.375H727.156V924.412C728.087 922.99 728.967 921.966 729.797 921.34C731.286 920.223 733.174 919.664 735.459 919.664ZM759.352 917.023H752.014V910.346H759.352V917.023ZM752.014 920.324H759.352V948H752.014V920.324ZM764.811 926.215V920.324H787.256V926.342L773.215 942.059H787.738V948H763.846V942.363L778.039 926.215H764.811ZM803.303 925.555C801.627 925.555 800.324 926.079 799.393 927.129C798.479 928.178 797.903 929.6 797.666 931.395H808.914C808.796 929.482 808.212 928.035 807.162 927.053C806.13 926.054 804.843 925.555 803.303 925.555ZM803.303 919.588C805.605 919.588 807.678 920.02 809.523 920.883C811.368 921.746 812.892 923.109 814.094 924.971C815.177 926.613 815.88 928.517 816.201 930.684C816.387 931.953 816.464 933.781 816.43 936.168H797.488C797.59 938.944 798.462 940.891 800.104 942.008C801.102 942.702 802.304 943.049 803.709 943.049C805.199 943.049 806.409 942.626 807.34 941.779C807.848 941.322 808.296 940.688 808.686 939.875H816.074C815.888 941.517 815.033 943.184 813.51 944.877C811.14 947.568 807.822 948.914 803.557 948.914C800.036 948.914 796.93 947.78 794.238 945.512C791.547 943.243 790.201 939.553 790.201 934.441C790.201 929.651 791.411 925.978 793.832 923.422C796.27 920.866 799.426 919.588 803.303 919.588ZM831.537 919.664C833.213 919.664 834.702 920.036 836.006 920.781C837.309 921.509 838.367 922.525 839.18 923.828V910.625H846.518V948H839.484V944.166C838.452 945.808 837.275 947.001 835.955 947.746C834.635 948.491 832.993 948.863 831.029 948.863C827.796 948.863 825.071 947.56 822.854 944.953C820.653 942.329 819.553 938.969 819.553 934.873C819.553 930.15 820.636 926.435 822.803 923.727C824.986 921.018 827.898 919.664 831.537 919.664ZM833.111 942.77C835.16 942.77 836.717 942.008 837.783 940.484C838.85 938.961 839.383 936.989 839.383 934.568C839.383 931.183 838.528 928.762 836.818 927.307C835.769 926.426 834.55 925.986 833.162 925.986C831.046 925.986 829.489 926.79 828.49 928.398C827.508 929.99 827.018 931.97 827.018 934.34C827.018 936.896 827.517 938.944 828.516 940.484C829.531 942.008 831.063 942.77 833.111 942.77ZM895.369 910.574V917.201H884.172V948H876.301V917.201H865.053V910.574H895.369ZM927.641 917.201H907.836V925.148H926.016V931.648H907.836V941.271H928.555V948H900.193V910.574H927.641V917.201ZM942.24 917.074V941.5H949.451C953.141 941.5 955.714 939.68 957.17 936.041C957.965 934.044 958.363 931.665 958.363 928.906C958.363 925.098 957.762 922.178 956.561 920.146C955.376 918.098 953.006 917.074 949.451 917.074H942.24ZM950.771 910.574C953.09 910.608 955.02 910.879 956.561 911.387C959.184 912.25 961.309 913.833 962.934 916.135C964.237 917.997 965.126 920.011 965.6 922.178C966.074 924.344 966.311 926.41 966.311 928.373C966.311 933.35 965.312 937.564 963.314 941.018C960.606 945.673 956.425 948 950.771 948H934.648V910.574H950.771ZM997.033 925.555C995.357 925.555 994.054 926.079 993.123 927.129C992.209 928.178 991.633 929.6 991.396 931.395H1002.64C1002.53 929.482 1001.94 928.035 1000.89 927.053C999.86 926.054 998.574 925.555 997.033 925.555ZM997.033 919.588C999.335 919.588 1001.41 920.02 1003.25 920.883C1005.1 921.746 1006.62 923.109 1007.82 924.971C1008.91 926.613 1009.61 928.517 1009.93 930.684C1010.12 931.953 1010.19 933.781 1010.16 936.168H991.219C991.32 938.944 992.192 940.891 993.834 942.008C994.833 942.702 996.035 943.049 997.439 943.049C998.929 943.049 1000.14 942.626 1001.07 941.779C1001.58 941.322 1002.03 940.688 1002.42 939.875H1009.8C1009.62 941.517 1008.76 943.184 1007.24 944.877C1004.87 947.568 1001.55 948.914 997.287 948.914C993.766 948.914 990.66 947.78 987.969 945.512C985.277 943.243 983.932 939.553 983.932 934.441C983.932 929.651 985.142 925.978 987.562 923.422C990 920.866 993.157 919.588 997.033 919.588ZM1032.12 920.324H1039.89L1029.91 948H1022.27L1012.34 920.324H1020.47L1026.23 940.738L1032.12 920.324ZM1054.92 925.555C1053.25 925.555 1051.94 926.079 1051.01 927.129C1050.1 928.178 1049.52 929.6 1049.29 931.395H1060.54C1060.42 929.482 1059.83 928.035 1058.78 927.053C1057.75 926.054 1056.46 925.555 1054.92 925.555ZM1054.92 919.588C1057.23 919.588 1059.3 920.02 1061.14 920.883C1062.99 921.746 1064.51 923.109 1065.71 924.971C1066.8 926.613 1067.5 928.517 1067.82 930.684C1068.01 931.953 1068.08 933.781 1068.05 936.168H1049.11C1049.21 938.944 1050.08 940.891 1051.72 942.008C1052.72 942.702 1053.93 943.049 1055.33 943.049C1056.82 943.049 1058.03 942.626 1058.96 941.779C1059.47 941.322 1059.92 940.688 1060.31 939.875H1067.7C1067.51 941.517 1066.65 943.184 1065.13 944.877C1062.76 947.568 1059.44 948.914 1055.18 948.914C1051.66 948.914 1048.55 947.78 1045.86 945.512C1043.17 943.243 1041.82 939.553 1041.82 934.441C1041.82 929.651 1043.03 925.978 1045.45 923.422C1047.89 920.866 1051.05 919.588 1054.92 919.588ZM1088.29 919.664C1091.15 919.664 1093.48 920.417 1095.29 921.924C1097.12 923.413 1098.04 925.893 1098.04 929.363V948H1090.62V931.166C1090.62 929.71 1090.43 928.593 1090.04 927.814C1089.33 926.393 1087.97 925.682 1085.98 925.682C1083.52 925.682 1081.84 926.723 1080.92 928.805C1080.45 929.905 1080.21 931.31 1080.21 933.02V948H1073V920.375H1079.98V924.412C1080.92 922.99 1081.8 921.966 1082.62 921.34C1084.11 920.223 1086 919.664 1088.29 919.664ZM1101.9 925.732V920.578H1105.76V912.859H1112.92V920.578H1117.41V925.732H1112.92V940.357C1112.92 941.492 1113.06 942.202 1113.35 942.49C1113.64 942.761 1114.52 942.896 1115.99 942.896C1116.21 942.896 1116.44 942.896 1116.67 942.896C1116.93 942.88 1117.17 942.863 1117.41 942.846V948.254L1113.98 948.381C1110.56 948.499 1108.23 947.907 1106.97 946.604C1106.16 945.774 1105.76 944.496 1105.76 942.77V925.732H1101.9Z" fill="white"/>
<g clip-path="url(#clip0_103_120)">
<mask id="mask0_103_120" style="mask-type:luminance" maskUnits="userSpaceOnUse" x="-145" y="-2863" width="12829" height="8279">
<path d="M-144.221 -2862.55H12683.9V5415.69H-144.221V-2862.55Z" fill="white"/>
</mask>
<g mask="url(#mask0_103_120)">
<path d="M185.019 561.421H143.998V524.002H271.106V561.421H230.096V670H185.019V561.421Z" fill="#EB0028"/>
</g>
<mask id="mask1_103_120" style="mask-type:luminance" maskUnits="userSpaceOnUse" x="-145" y="-2863" width="12829" height="8279">
<path d="M-144.221 -2862.55H12683.9V5415.69H-144.221V-2862.55Z" fill="white"/>
</mask>
<g mask="url(#mask1_103_120)">
<path d="M278.11 524.003H401.498V561.423H323.219V579.61H401.498V614.384H323.219V632.582H401.519V669.991H278.11V524.003Z" fill="#EB0028"/>
<path d="M454.194 632.579H471.833C499.931 632.579 504.04 609.876 504.04 596.163C504.04 586.975 501.147 561.419 468.553 561.419H454.194V632.579ZM409.097 524H483.11C531.897 524 549.137 559.987 549.137 596.78C549.137 641.578 525.357 669.998 474.307 669.998H409.097V524Z" fill="#EB0028"/>
<path d="M613.946 614.095L600.185 591.341L586.77 614.095H553.725L585.093 568.084L554.888 524.08H587.944L600.185 545.831L612.782 524.08H645.827L615.633 568.084L647.001 614.095H613.946Z" fill="#EB0028"/>
</g>
</g>
<defs>
<clipPath id="clip0_103_120">
<rect width="503" height="146" fill="white" transform="translate(144 524)"/>
</clipPath>
</defs>
</svg>
